<svg width="1498" height="504" viewBox="0 0 1498 504" fill="none" xmlns="http://www.w3.org/2000/svg">
<g clip-path="url(#clip0_2328_20)">
<mask id="mask0_2328_20" style="mask-type:luminance" maskUnits="userSpaceOnUse" x="-249" y="-85" width="2000" height="674">
<path d="M1751 -85H-249V589H1751V-85Z" fill="white"/>
</mask>
<g mask="url(#mask0_2328_20)">
<path d="M1751 -450H-249V1050H1751V-450Z" fill="#201F1F"/>
<mask id="mask1_2328_20" style="mask-type:luminance" maskUnits="userSpaceOnUse" x="0" y="113" width="1501" height="375">
<path d="M1500.09 113.23H0.0910034V487.48H1500.09V113.23Z" fill="white"/>
</mask>
<g mask="url(#mask1_2328_20)">
<path d="M1500.09 113.23H0.0910034V487.48H1500.09V113.23Z" fill="#201F1F"/>
<mask id="mask2_2328_20" style="mask-type:luminance" maskUnits="userSpaceOnUse" x="2" y="112" width="1496" height="376">
<path d="M1497.69 112.875H2.49799V487.836H1497.69V112.875Z" fill="white"/>
</mask>
<g mask="url(#mask2_2328_20)">
<mask id="mask3_2328_20" style="mask-type:luminance" maskUnits="userSpaceOnUse" x="2" y="112" width="1496" height="376">
<path d="M1497.69 112.875H2.49799V487.836H1497.69V112.875Z" fill="white"/>
</mask>
<g mask="url(#mask3_2328_20)">
<mask id="mask4_2328_20" style="mask-type:luminance" maskUnits="userSpaceOnUse" x="2" y="112" width="1496" height="376">
<path d="M1497.69 112.875H2.49799V487.836H1497.69V112.875Z" fill="white"/>
</mask>
<g mask="url(#mask4_2328_20)">
<mask id="mask5_2328_20" style="mask-type:luminance" maskUnits="userSpaceOnUse" x="2" y="112" width="1496" height="376">
<path d="M1497.69 112.875H2.49799V487.836H1497.69V112.875Z" fill="white"/>
</mask>
<g mask="url(#mask5_2328_20)">
<mask id="mask6_2328_20" style="mask-type:luminance" maskUnits="userSpaceOnUse" x="2" y="112" width="1496" height="376">
<path d="M1497.69 112.875H2.49799V487.836H1497.69V112.875Z" fill="white"/>
</mask>
<g mask="url(#mask6_2328_20)">
<mask id="mask7_2328_20" style="mask-type:luminance" maskUnits="userSpaceOnUse" x="2" y="112" width="1496" height="376">
<path d="M1497.69 112.875H2.49799V487.836H1497.69V112.875Z" fill="white"/>
</mask>
<g mask="url(#mask7_2328_20)">
<path d="M78.267 394.678C62.223 394.678 50.267 390.538 42.401 382.257C34.482 373.976 30.523 360.391 30.523 341.5V241.355C26.642 240.062 22.579 238.949 18.335 238.017C14.039 237.137 8.78599 236.568 2.57599 236.309C2.57599 232.686 2.83499 229.452 3.35199 226.605C3.86999 223.759 4.77498 220.654 6.06898 217.29H30.523V167.217C36.734 165.923 42.892 163.724 48.999 160.618C55.055 157.513 60.153 154.149 64.293 150.526C67.139 151.561 69.08 153.243 70.115 155.572C71.15 157.901 71.668 163.336 71.668 171.875V217.29H121.352C121.352 220.395 121.093 223.629 120.576 226.994C120.058 230.358 119.153 233.592 117.859 236.697C108.543 236.697 100.081 237.215 92.473 238.25C84.814 239.285 77.878 240.45 71.668 241.744V333.737C71.668 342.794 72.522 350.091 74.23 355.629C75.886 361.219 78.344 365.307 81.605 367.895C84.814 370.483 88.747 371.777 93.405 371.777C98.58 371.777 103.186 371.052 107.223 369.603C111.208 368.205 115.012 366.084 118.635 363.237C121.999 367.377 123.94 372.294 124.457 377.987C120.058 382.645 113.46 386.578 104.661 389.787C95.863 393.048 87.065 394.678 78.267 394.678ZM334.451 275.125V339.948C334.451 353.145 336.262 362.073 339.885 366.73C343.508 371.388 349.072 373.717 356.576 373.717C357.352 376.305 357.922 379.022 358.284 381.869C358.698 384.715 358.905 388.209 358.905 392.349C353.212 391.831 346.484 391.521 338.721 391.417C330.958 391.262 322.936 391.184 314.655 391.184C309.479 391.184 303.787 391.262 297.576 391.417C291.365 391.521 285.543 391.65 280.109 391.806C274.675 391.909 269.887 392.09 265.747 392.349C265.747 388.467 265.876 384.974 266.135 381.869C266.394 378.763 267.041 376.046 268.076 373.717C276.874 373.717 283.344 371.259 287.484 366.342C291.624 361.426 293.694 352.369 293.694 339.171V285.217C293.694 267.362 290.512 255.2 284.146 248.73C277.832 242.261 269.629 239.026 259.536 239.026C252.808 239.026 246.21 241.226 239.74 245.625C233.271 250.024 227.889 256.882 223.593 266.197C219.349 275.513 217.227 287.805 217.227 303.073V339.948C217.227 352.886 219.09 361.736 222.817 366.498C226.595 371.311 233.271 373.717 242.846 373.717C243.622 376.305 244.191 379.074 244.554 382.024C244.968 385.026 245.175 388.467 245.175 392.349C241.293 392.09 236.635 391.909 231.201 391.806C225.767 391.65 220.074 391.521 214.122 391.417C208.17 391.262 202.348 391.184 196.655 391.184C191.479 391.184 185.786 391.262 179.576 391.417C173.365 391.521 167.465 391.65 161.876 391.806C156.338 391.909 151.629 392.09 147.747 392.349C147.747 388.467 147.876 384.896 148.135 381.636C148.394 378.427 148.911 375.788 149.688 373.717C159.78 373.717 166.767 371.311 170.648 366.498C174.53 361.736 176.471 352.886 176.471 339.948V268.526L217.227 228.158C217.227 231.263 217.02 234.757 216.606 238.638C216.244 242.52 215.416 246.66 214.122 251.059C215.157 249.248 216.192 247.307 217.227 245.237C218.262 243.167 219.686 240.967 221.497 238.638C226.155 232.687 233.271 226.735 242.846 220.783C252.42 214.831 263.806 211.855 277.004 211.855C287.354 211.855 296.851 213.848 305.494 217.833C314.189 221.87 321.176 228.469 326.455 237.629C331.786 246.841 334.451 259.34 334.451 275.125ZM176.471 182.355V170.322C176.471 164.112 175.824 158.988 174.53 154.951C173.236 150.966 170.519 147.939 166.379 145.868C162.238 143.798 155.898 142.763 147.359 142.763C147.359 139.658 147.618 136.682 148.135 133.836C148.653 130.989 149.558 128.401 150.852 126.072C156.286 126.072 162.885 125.425 170.648 124.132C178.411 122.838 185.709 121.156 192.54 119.086C199.424 117.015 204.547 114.945 207.911 112.875C210.499 113.91 212.699 115.721 214.51 118.309C216.322 120.897 217.227 124.778 217.227 129.954V182.355H176.471ZM176.471 275.513V168.382H217.227V228.158L176.471 275.513ZM473.023 394.678C453.616 394.678 437.623 390.538 425.047 382.257C412.523 373.976 403.077 362.849 396.712 348.875C390.398 334.901 387.241 319.505 387.241 302.684C387.241 285.605 390.605 270.079 397.333 256.105C404.061 242.132 413.687 230.927 426.212 222.491C438.788 214.107 453.616 209.915 470.695 209.915C488.032 209.915 501.98 213.537 512.538 220.783C523.199 228.029 531.17 237.733 536.449 249.895C541.779 262.057 544.807 275.772 545.531 291.04C544.548 296.991 542.374 301.908 539.01 305.79C533.835 305.79 526.77 305.79 517.817 305.79C508.915 305.79 498.952 305.841 487.929 305.945C476.957 306.1 465.7 306.359 454.159 306.721C442.618 307.135 431.827 307.601 421.787 308.119V286.77H501.747C501.747 269.691 498.823 255.976 492.975 245.625C487.178 235.274 478.82 230.099 467.9 230.099C461.741 230.099 455.815 232.04 450.122 235.921C444.429 239.803 439.771 246.324 436.148 255.484C432.526 264.697 430.714 277.454 430.714 293.757C430.714 306.695 432.396 319.039 435.76 330.787C439.073 342.587 444.766 352.162 452.839 359.511C460.861 366.912 472.247 370.612 486.997 370.612C495.537 370.612 503.999 368.801 512.383 365.178C520.819 361.555 528.271 356.38 534.741 349.652C536.759 350.687 538.752 352.627 540.718 355.474C542.633 358.32 543.746 361.037 544.056 363.625C534.999 374.752 524.571 382.697 512.771 387.458C500.971 392.271 487.722 394.678 473.023 394.678ZM581.242 127.625C586.417 127.884 592.757 128.143 600.262 128.401C607.766 128.66 614.882 128.789 621.61 128.789C628.08 128.789 634.808 128.712 641.795 128.557C648.782 128.453 655.768 128.324 662.755 128.168C669.742 128.065 676.341 128.013 682.551 128.013C699.63 128.013 714.639 129.695 727.578 133.059C740.516 136.423 750.686 142.246 758.09 150.526C765.44 158.807 769.11 170.322 769.11 185.072C769.11 201.375 764.06 215.349 753.97 226.994C743.88 238.638 729.907 245.884 712.051 248.73C726.543 249.507 739.481 252.172 750.867 256.726C762.25 261.229 771.31 268.138 778.04 277.454C784.77 286.77 788.13 299.191 788.13 314.717C788.13 328.95 784.84 341.888 778.27 353.533C771.65 365.178 761.17 374.364 746.83 381.092C732.443 387.82 713.604 391.184 690.314 391.184C682.551 391.184 673.572 391.184 663.376 391.184C653.129 391.184 642.778 391.262 632.324 391.417C621.817 391.521 612.036 391.65 602.979 391.806C593.922 391.909 586.547 392.09 580.854 392.349C580.854 388.467 580.983 384.896 581.242 381.636C581.501 378.427 582.018 375.788 582.795 373.717C589.781 373.2 595.216 371.828 599.097 369.603C602.979 367.429 605.774 363.625 607.481 358.191C609.138 352.757 609.966 344.864 609.966 334.513V181.579C609.966 172.263 609.189 165.199 607.637 160.386C606.084 155.624 603.367 152.208 599.485 150.138C595.604 148.068 590.17 146.774 583.183 146.257C582.407 143.928 581.889 141.081 581.63 137.717C581.371 134.353 581.242 130.989 581.242 127.625ZM647.229 150.526L652.663 142.375V335.29C652.663 345.899 653.698 353.921 655.768 359.355C657.839 364.79 661.461 368.335 666.637 369.991C671.812 371.699 678.799 372.553 687.597 372.553C705.194 372.553 718.262 367.895 726.801 358.579C735.341 349.263 739.611 336.454 739.611 320.151C739.611 308.507 737.411 298.932 733.012 291.428C728.613 283.923 722.609 278.23 715.001 274.349C707.342 270.467 698.932 267.75 689.771 266.197C680.559 264.645 671.295 263.869 661.979 263.869H646.453V245.237H665.084C680.611 245.237 692.592 242.96 701.028 238.405C709.412 233.903 715.286 227.951 718.65 220.55C722.014 213.201 723.696 205.257 723.696 196.717C723.696 184.037 720.85 174.075 715.157 166.829C709.464 159.583 702.425 154.46 694.041 151.458C685.605 148.508 677.246 147.033 668.966 147.033C665.343 147.033 661.927 147.292 658.718 147.809C655.458 148.327 651.628 149.232 647.229 150.526ZM821.12 392.349C821.12 389.244 821.25 386.009 821.51 382.645C821.77 379.281 822.29 376.305 823.06 373.717C833.42 373.459 840.48 371 844.26 366.342C847.98 361.684 849.85 352.886 849.85 339.948V169.546C849.85 163.594 849.2 158.678 847.91 154.796C846.61 150.914 843.9 147.939 839.76 145.868C835.62 143.798 829.28 142.763 820.74 142.763C820.74 139.658 820.99 136.682 821.51 133.836C822.03 130.989 822.94 128.401 824.23 126.072C829.66 126.072 836.26 125.425 844.03 124.132C851.79 122.838 859.11 121.156 865.99 119.086C872.83 117.015 877.92 114.945 881.29 112.875C883.88 113.91 886.08 115.721 887.89 118.309C889.7 120.897 890.6 124.778 890.6 129.954V339.948C890.6 352.886 892.36 361.684 895.88 366.342C899.35 371 905.35 373.459 913.89 373.717C914.67 376.305 915.27 379.41 915.68 383.033C916.04 386.656 916.22 389.761 916.22 392.349C911.82 392.09 907.04 391.909 901.86 391.806C896.69 391.65 891.25 391.521 885.56 391.417C879.87 391.262 874.3 391.184 868.87 391.184C863.43 391.184 857.74 391.262 851.79 391.417C845.84 391.521 840.27 391.65 835.1 391.806C829.92 391.909 825.26 392.09 821.12 392.349ZM1033.83 394.678C1015.46 394.678 999.47 390.848 985.86 383.188C972.3 375.58 961.82 364.919 954.42 351.204C947.07 337.489 943.39 321.316 943.39 302.684C943.39 284.57 947.33 268.526 955.19 254.553C963.11 240.579 973.93 229.633 987.64 221.715C1001.36 213.848 1016.88 209.915 1034.22 209.915C1053.63 209.915 1070.06 213.796 1083.52 221.559C1096.97 229.322 1107.2 240.061 1114.18 253.776C1121.17 267.491 1124.66 283.535 1124.66 301.908C1124.66 319.763 1120.91 335.73 1113.41 349.807C1105.9 363.936 1095.34 374.959 1081.73 382.878C1068.17 390.745 1052.21 394.678 1033.83 394.678ZM1037.72 374.105C1052.21 374.105 1062.95 367.947 1069.93 355.629C1076.92 343.363 1080.41 327.397 1080.41 307.73C1080.41 291.687 1078.14 277.765 1073.58 265.965C1069.08 254.216 1063 245.289 1055.34 239.182C1047.73 233.126 1039.4 230.099 1030.34 230.099C1016.11 230.099 1005.5 236.051 998.51 247.954C991.53 259.858 988.03 275.125 988.03 293.757C988.03 310.318 990.02 324.68 994.01 336.842C998.05 349.005 1003.82 358.243 1011.32 364.557C1018.83 370.923 1027.62 374.105 1037.72 374.105ZM1224.03 487.836C1207.47 487.836 1194.07 485.843 1183.82 481.858C1173.62 477.821 1166.2 471.999 1161.54 464.391C1156.88 456.731 1154.55 447.467 1154.55 436.599C1154.55 426.766 1157.27 418.226 1162.7 410.98C1168.14 403.735 1175.77 398.171 1185.6 394.29L1206.95 396.619C1201 401.535 1196.91 406.4 1194.69 411.213C1192.51 415.975 1191.43 421.59 1191.43 428.059C1191.43 440.481 1194.66 449.874 1201.13 456.24C1207.6 462.554 1218.6 465.711 1234.12 465.711C1250.94 465.711 1264.14 461.777 1273.72 453.911C1283.29 445.992 1288.08 436.728 1288.08 426.119C1288.08 420.167 1286.58 415.457 1283.58 411.99C1280.63 408.47 1274.88 405.883 1266.34 404.227C1257.8 402.519 1245.25 401.665 1228.69 401.665C1217.3 401.665 1207.6 401.095 1199.58 399.957C1191.56 398.766 1184.96 396.826 1179.78 394.134C1174.61 391.391 1170.85 387.743 1168.53 383.188C1166.2 378.686 1165.03 372.941 1165.03 365.954C1165.03 356.638 1167.62 347.969 1172.8 339.948C1177.97 331.926 1184.44 324.809 1192.2 318.599L1210.06 328.691C1205.4 332.573 1201.96 336.247 1199.73 339.715C1197.56 343.234 1196.47 346.417 1196.47 349.263C1196.47 353.921 1197.95 357.337 1200.9 359.511C1203.9 361.736 1209.59 363.159 1217.98 363.78C1226.41 364.453 1238.39 364.79 1253.92 364.79C1270.74 364.79 1284.33 366.213 1294.68 369.059C1305.03 371.906 1312.66 376.512 1317.58 382.878C1322.49 389.192 1324.95 397.913 1324.95 409.04C1324.95 418.355 1322.49 427.749 1317.58 437.22C1312.66 446.639 1305.73 455.101 1296.77 462.606C1287.87 470.11 1277.21 476.191 1264.79 480.849C1252.37 485.507 1238.78 487.836 1224.03 487.836ZM1234.51 337.23C1221.06 337.23 1208.64 334.901 1197.25 330.244C1185.86 325.586 1176.86 318.599 1170.23 309.283C1163.66 299.967 1160.37 288.323 1160.37 274.349C1160.37 261.928 1163.09 250.93 1168.53 241.355C1173.96 231.781 1182.11 224.147 1192.98 218.454C1203.85 212.761 1217.17 209.915 1232.96 209.915C1246.67 209.915 1258.24 212.036 1267.66 216.28C1277.13 220.576 1284.97 226.01 1291.18 232.583C1297.39 239.208 1301.84 246.143 1304.54 253.388C1307.28 260.634 1308.65 267.233 1308.65 273.184C1308.65 284.829 1305.86 295.568 1300.27 305.401C1294.73 315.235 1286.45 322.998 1275.42 328.691C1264.45 334.384 1250.81 337.23 1234.51 337.23ZM1239.17 317.823C1247.45 317.823 1254.18 314.381 1259.35 307.498C1264.53 300.666 1267.12 290.651 1267.12 277.454C1267.12 263.739 1263.93 252.094 1257.57 242.52C1251.25 232.945 1242.28 228.158 1230.63 228.158C1220.8 228.158 1213.55 232.298 1208.89 240.579C1204.24 248.86 1201.91 258.434 1201.91 269.303C1201.91 284.829 1205.19 296.784 1211.77 305.169C1218.39 313.605 1227.53 317.823 1239.17 317.823ZM1328.45 239.026C1324.31 237.991 1319.44 236.956 1313.85 235.921C1308.31 234.886 1302.88 233.98 1297.55 233.204C1292.27 232.428 1287.56 231.91 1283.42 231.651L1253.14 213.408H1325.34C1326.64 217.031 1327.46 221.094 1327.83 225.596C1328.24 230.151 1328.45 234.627 1328.45 239.026ZM1484.02 223.112C1483.76 229.581 1483.63 236.309 1483.63 243.296C1483.63 250.283 1484.15 257.14 1485.18 263.869C1482.34 265.421 1478.92 266.637 1474.94 267.517C1470.9 268.449 1466.81 268.915 1462.67 268.915C1462.15 261.928 1460.16 255.329 1456.69 249.119C1453.17 242.908 1448.44 237.862 1442.49 233.98C1436.54 230.099 1429.42 228.158 1421.14 228.158C1413.63 228.158 1407.68 229.969 1403.28 233.592C1398.88 237.215 1396.68 242.002 1396.68 247.954C1396.68 252.094 1397.59 255.769 1399.4 258.978C1401.21 262.238 1405.35 265.732 1411.82 269.458C1418.29 273.236 1428.25 277.842 1441.71 283.276C1455.94 288.452 1467.07 293.679 1475.09 298.958C1483.11 304.289 1488.89 310.111 1492.4 316.425C1495.87 322.791 1497.61 330.632 1497.61 339.948C1497.61 350.816 1494.45 360.391 1488.13 368.671C1481.77 376.952 1472.97 383.344 1461.74 387.846C1450.46 392.401 1437.7 394.678 1423.47 394.678C1407.68 394.678 1395.08 393.436 1385.66 390.952C1376.19 388.519 1366.8 385.103 1357.48 380.704C1358.26 376.305 1358.72 371.13 1358.88 365.178C1358.98 359.226 1359.03 353.326 1359.03 347.478C1359.03 341.681 1358.77 336.713 1358.26 332.573C1360.59 330.761 1363.95 329.467 1368.35 328.691C1372.75 327.915 1377.02 327.526 1381.16 327.526C1383.23 343.312 1388.09 355.086 1395.75 362.849C1403.36 370.612 1413.5 374.494 1426.18 374.494C1435.76 374.494 1443.34 372.346 1448.93 368.05C1454.47 363.806 1457.24 358.191 1457.24 351.204C1457.24 346.805 1456.15 342.923 1453.98 339.559C1451.75 336.195 1447.79 332.883 1442.1 329.623C1436.41 326.414 1427.87 322.61 1416.48 318.211C1403.02 312.776 1392.1 307.601 1383.72 302.684C1375.28 297.768 1369.13 291.868 1365.24 284.984C1361.36 278.153 1359.42 269.432 1359.42 258.822C1359.42 250.542 1361.49 243.296 1365.63 237.086C1369.77 230.875 1375.15 225.751 1381.78 221.715C1388.35 217.729 1395.6 214.754 1403.52 212.787C1411.38 210.872 1418.94 209.915 1426.18 209.915C1438.61 209.915 1449.34 211.001 1458.4 213.175C1467.46 215.401 1476 218.713 1484.02 223.112Z" fill="#EE5626"/>
</g>
</g>
</g>
</g>
</g>
</g>
</g>
</g>
</g>
<defs>
<clipPath id="clip0_2328_20">
<rect width="1498" height="504" fill="white"/>
</clipPath>
</defs>
</svg>
