<svg xmlns="http://www.w3.org/2000/svg" version="1.1" xmlns:xlink="http://www.w3.org/1999/xlink" xmlns:svgjs="http://svgjs.dev/svgjs" width="2000" height="499" viewBox="0 0 2000 499"><g transform="matrix(1,0,0,1,-1.2121212121212466,0.47389219295760654)"><svg viewBox="0 0 396 99" data-background-color="#201f1f" preserveAspectRatio="xMidYMid meet" height="499" width="2000" xmlns="http://www.w3.org/2000/svg" xmlns:xlink="http://www.w3.org/1999/xlink"><g id="tight-bounds" transform="matrix(1,0,0,1,0.2400000000000091,-0.0940186915887864)"><svg viewBox="0 0 395.52 99.18803738317756" height="99.18803738317756" width="395.52"><g><svg viewBox="0 0 395.52 99.18803738317756" height="99.18803738317756" width="395.52"><g><svg viewBox="0 0 395.52 99.18803738317756" height="99.18803738317756" width="395.52"><g id="textblocktransform"><svg viewBox="0 0 395.52 99.18803738317756" height="99.18803738317756" width="395.52" id="textblock"><g><svg viewBox="0 0 395.52 99.18803738317756" height="99.18803738317756" width="395.52"><g transform="matrix(1,0,0,1,0,0)"><svg width="395.52" viewBox="0.8999999999999999 -35.85 192.57999999999998 48.3" height="99.18803738317756" data-palette-color="#ee5626"><g class="wordmark-text-0" data-fill-palette-color="primary" id="text-0"><path d="M10.65 0.45L10.65 0.45Q7.55 0.45 6.03-1.15 4.5-2.75 4.5-6.4L4.5-6.4 4.5-19.3Q3.75-19.55 2.93-19.73 2.1-19.9 0.9-19.95L0.9-19.95Q0.9-20.65 1-21.2 1.1-21.75 1.35-22.4L1.35-22.4 4.5-22.4 4.5-28.85Q5.7-29.1 6.88-29.7 8.05-30.3 8.85-31L8.85-31Q9.4-30.8 9.6-30.35 9.8-29.9 9.8-28.25L9.8-28.25 9.8-22.4 16.2-22.4Q16.2-21.8 16.1-21.15 16-20.5 15.75-19.9L15.75-19.9Q13.95-19.9 12.48-19.7 11-19.5 9.8-19.25L9.8-19.25 9.8-7.4Q9.8-5.65 10.13-4.58 10.45-3.5 11.08-3 11.7-2.5 12.6-2.5L12.6-2.5Q13.6-2.5 14.38-2.78 15.15-3.05 15.85-3.6L15.85-3.6Q16.5-2.8 16.6-1.7L16.6-1.7Q15.75-0.8 14.05-0.18 12.35 0.45 10.65 0.45ZM43.65-14.95L43.65-6.6Q43.65-4.05 44.35-3.15 45.05-2.25 46.5-2.25L46.5-2.25Q46.65-1.75 46.72-1.2 46.8-0.65 46.8 0.15L46.8 0.15Q45.7 0.05 44.2 0.03 42.7 0 41.1 0L41.1 0Q40.1 0 38.9 0.03 37.7 0.05 36.65 0.08 35.6 0.1 34.8 0.15L34.8 0.15Q34.8-0.6 34.85-1.2 34.9-1.8 35.1-2.25L35.1-2.25Q36.8-2.25 37.6-3.2 38.4-4.15 38.4-6.7L38.4-6.7 38.4-13.65Q38.4-17.1 37.17-18.35 35.95-19.6 34-19.6L34-19.6Q32.7-19.6 31.45-18.75 30.2-17.9 29.37-16.1 28.55-14.3 28.55-11.35L28.55-11.35 28.55-6.6Q28.55-4.1 29.27-3.18 30-2.25 31.85-2.25L31.85-2.25Q32-1.75 32.07-1.18 32.15-0.6 32.15 0.15L32.15 0.15Q31.4 0.1 30.35 0.08 29.3 0.05 28.15 0.03 27 0 25.9 0L25.9 0Q24.9 0 23.7 0.03 22.5 0.05 21.42 0.08 20.35 0.1 19.6 0.15L19.6 0.15Q19.6-0.6 19.65-1.23 19.7-1.85 19.85-2.25L19.85-2.25Q21.8-2.25 22.55-3.18 23.3-4.1 23.3-6.6L23.3-6.6 23.3-15.8 28.55-21Q28.55-20.4 28.47-19.65 28.4-18.9 28.15-18.05L28.15-18.05Q28.35-18.4 28.55-18.8 28.75-19.2 29.1-19.65L29.1-19.65Q30-20.8 31.85-21.95 33.7-23.1 36.25-23.1L36.25-23.1Q38.25-23.1 39.92-22.33 41.6-21.55 42.62-19.78 43.65-18 43.65-14.95L43.65-14.95ZM23.3-26.9L23.3-28.45Q23.3-29.65 23.05-30.43 22.8-31.2 22-31.6 21.2-32 19.55-32L19.55-32Q19.55-32.6 19.65-33.15 19.75-33.7 20-34.15L20-34.15Q21.05-34.15 22.55-34.4 24.05-34.65 25.37-35.05 26.7-35.45 27.35-35.85L27.35-35.85Q27.85-35.65 28.2-35.15 28.55-34.65 28.55-33.65L28.55-33.65 28.55-26.9 23.3-26.9ZM23.3-14.9L23.3-28.7 28.55-28.7 28.55-21 23.3-14.9ZM61.5 0.45L61.5 0.45Q57.75 0.45 55.32-1.15 52.9-2.75 51.67-5.45 50.45-8.15 50.45-11.4L50.45-11.4Q50.45-14.7 51.75-17.4 53.05-20.1 55.47-21.73 57.9-23.35 61.2-23.35L61.2-23.35Q64.55-23.35 66.59-21.95 68.65-20.55 69.67-18.2 70.7-15.85 70.84-12.9L70.84-12.9Q70.65-11.75 70-11L70-11Q69-11 67.27-11 65.55-11 63.42-10.98 61.3-10.95 59.07-10.88 56.84-10.8 54.9-10.7L54.9-10.7 54.9-13.45 65.2-13.45Q65.2-16.75 64.07-18.75 62.95-20.75 60.84-20.75L60.84-20.75Q59.65-20.75 58.55-20 57.45-19.25 56.75-17.48 56.05-15.7 56.05-12.55L56.05-12.55Q56.05-10.05 56.7-7.78 57.34-5.5 58.9-4.08 60.45-2.65 63.3-2.65L63.3-2.65Q64.95-2.65 66.57-3.35 68.2-4.05 69.45-5.35L69.45-5.35Q69.84-5.15 70.22-4.6 70.59-4.05 70.65-3.55L70.65-3.55Q68.9-1.4 66.62-0.48 64.34 0.45 61.5 0.45ZM75.44-33.95L75.44-33.95Q76.44-33.9 77.89-33.85 79.34-33.8 80.64-33.8L80.64-33.8Q81.89-33.8 83.24-33.83 84.59-33.85 85.94-33.88 87.29-33.9 88.49-33.9L88.49-33.9Q91.79-33.9 94.29-33.25 96.79-32.6 98.22-31 99.64-29.4 99.64-26.55L99.64-26.55Q99.64-23.4 97.69-21.15 95.74-18.9 92.29-18.35L92.29-18.35Q95.09-18.2 97.29-17.32 99.49-16.45 100.79-14.65 102.09-12.85 102.09-9.85L102.09-9.85Q102.09-7.1 100.82-4.85 99.54-2.6 96.77-1.3 93.99 0 89.49 0L89.49 0Q87.99 0 86.02 0 84.04 0 82.02 0.03 79.99 0.05 78.24 0.08 76.49 0.1 75.39 0.15L75.39 0.15Q75.39-0.6 75.44-1.23 75.49-1.85 75.64-2.25L75.64-2.25Q76.99-2.35 77.74-2.78 78.49-3.2 78.82-4.25 79.14-5.3 79.14-7.3L79.14-7.3 79.14-27Q79.14-28.8 78.84-29.73 78.54-30.65 77.79-31.05 77.04-31.45 75.69-31.55L75.69-31.55Q75.54-32 75.49-32.65 75.44-33.3 75.44-33.95ZM83.94-31L84.64-32.05 84.64-7.2Q84.64-5.15 85.04-4.1 85.44-3.05 86.44-2.73 87.44-2.4 89.14-2.4L89.14-2.4Q92.54-2.4 94.19-4.2 95.84-6 95.84-9.15L95.84-9.15Q95.84-11.4 94.99-12.85 94.14-14.3 92.67-15.05 91.19-15.8 89.42-16.1 87.64-16.4 85.84-16.4L85.84-16.4 83.84-16.4 83.84-18.8 86.24-18.8Q89.24-18.8 90.87-19.68 92.49-20.55 93.14-21.98 93.79-23.4 93.79-25.05L93.79-25.05Q93.79-27.5 92.69-28.9 91.59-30.3 89.97-30.88 88.34-31.45 86.74-31.45L86.74-31.45Q86.04-31.45 85.42-31.35 84.79-31.25 83.94-31L83.94-31ZM106.34 0.15L106.34 0.15Q106.34-0.45 106.39-1.1 106.44-1.75 106.59-2.25L106.59-2.25Q108.59-2.3 109.32-3.2 110.04-4.1 110.04-6.6L110.04-6.6 110.04-28.55Q110.04-29.7 109.79-30.45 109.54-31.2 108.74-31.6 107.94-32 106.29-32L106.29-32Q106.29-32.6 106.39-33.15 106.49-33.7 106.74-34.15L106.74-34.15Q107.79-34.15 109.29-34.4 110.79-34.65 112.12-35.05 113.44-35.45 114.09-35.85L114.09-35.85Q114.59-35.65 114.94-35.15 115.29-34.65 115.29-33.65L115.29-33.65 115.29-6.6Q115.29-4.1 115.97-3.2 116.64-2.3 118.29-2.25L118.29-2.25Q118.44-1.75 118.52-1.05 118.59-0.35 118.59 0.15L118.59 0.15Q117.74 0.1 116.74 0.08 115.74 0.05 114.64 0.03 113.54 0 112.49 0L112.49 0Q111.44 0 110.29 0.03 109.14 0.05 108.14 0.08 107.14 0.1 106.34 0.15ZM133.74 0.45L133.74 0.45Q130.19 0.45 127.56-1.03 124.94-2.5 123.51-5.15 122.09-7.8 122.09-11.4L122.09-11.4Q122.09-14.9 123.61-17.6 125.14-20.3 127.79-21.83 130.44-23.35 133.79-23.35L133.79-23.35Q137.54-23.35 140.14-21.85 142.74-20.35 144.09-17.7 145.44-15.05 145.44-11.5L145.44-11.5Q145.44-8.05 143.99-5.33 142.54-2.6 139.91-1.07 137.29 0.45 133.74 0.45ZM134.24-2.2L134.24-2.2Q137.04-2.2 138.39-4.58 139.74-6.95 139.74-10.75L139.74-10.75Q139.74-13.85 138.86-16.13 137.99-18.4 136.51-19.58 135.04-20.75 133.29-20.75L133.29-20.75Q130.54-20.75 129.19-18.45 127.84-16.15 127.84-12.55L127.84-12.55Q127.84-9.35 128.61-7 129.39-4.65 130.84-3.43 132.29-2.2 134.24-2.2ZM158.24 12.45L158.24 12.45Q155.04 12.45 153.06 11.68 151.09 10.9 150.19 9.43 149.29 7.95 149.29 5.85L149.29 5.85Q149.29 3.95 150.34 2.55 151.39 1.15 153.29 0.4L153.29 0.4 156.04 0.7Q154.89 1.65 154.46 2.58 154.04 3.5 154.04 4.75L154.04 4.75Q154.04 7.15 155.29 8.38 156.54 9.6 159.54 9.6L159.54 9.6Q162.79 9.6 164.64 8.08 166.49 6.55 166.49 4.5L166.49 4.5Q166.49 3.35 165.91 2.68 165.34 2 163.69 1.68 162.04 1.35 158.84 1.35L158.84 1.35Q156.64 1.35 155.09 1.13 153.54 0.9 152.54 0.38 151.54-0.15 151.09-1.03 150.64-1.9 150.64-3.25L150.64-3.25Q150.64-5.05 151.64-6.6 152.64-8.15 154.14-9.35L154.14-9.35 156.44-8.05Q155.54-7.3 155.11-6.63 154.69-5.95 154.69-5.4L154.69-5.4Q154.69-4.5 155.26-4.08 155.84-3.65 157.46-3.53 159.09-3.4 162.09-3.4L162.09-3.4Q165.34-3.4 167.34-2.85 169.34-2.3 170.29-1.07 171.24 0.15 171.24 2.3L171.24 2.3Q171.24 4.1 170.29 5.93 169.34 7.75 167.61 9.2 165.89 10.65 163.49 11.55 161.09 12.45 158.24 12.45ZM159.59-6.95L159.59-6.95Q156.99-6.95 154.79-7.85 152.59-8.75 151.31-10.55 150.04-12.35 150.04-15.05L150.04-15.05Q150.04-17.45 151.09-19.3 152.14-21.15 154.24-22.25 156.34-23.35 159.39-23.35L159.39-23.35Q162.04-23.35 163.86-22.53 165.69-21.7 166.89-20.43 168.09-19.15 168.61-17.75 169.14-16.35 169.14-15.2L169.14-15.2Q169.14-12.95 168.06-11.05 166.99-9.15 164.86-8.05 162.74-6.95 159.59-6.95ZM160.19-9.45L160.19-9.45Q161.79-9.45 162.79-10.78 163.79-12.1 163.79-14.65L163.79-14.65Q163.79-17.3 162.56-19.15 161.34-21 159.09-21L159.09-21Q157.19-21 156.29-19.4 155.39-17.8 155.39-15.7L155.39-15.7Q155.39-12.7 156.66-11.08 157.94-9.45 160.19-9.45ZM171.69-19.6L171.69-19.6Q170.89-19.8 169.81-20 168.74-20.2 167.71-20.35 166.69-20.5 165.89-20.55L165.89-20.55 161.99-22.9 171.29-22.9Q171.54-22.2 171.61-21.33 171.69-20.45 171.69-19.6ZM191.73-21.65L191.73-21.65Q191.68-20.4 191.68-19.05 191.68-17.7 191.88-16.4L191.88-16.4Q191.33-16.1 190.56-15.93 189.78-15.75 188.98-15.75L188.98-15.75Q188.88-17.1 188.21-18.3 187.53-19.5 186.38-20.25 185.23-21 183.63-21L183.63-21Q182.18-21 181.33-20.3 180.48-19.6 180.48-18.45L180.48-18.45Q180.48-17.65 180.83-17.03 181.18-16.4 182.43-15.68 183.68-14.95 186.28-13.9L186.28-13.9Q189.03-12.9 190.58-11.88 192.13-10.85 192.81-9.63 193.48-8.4 193.48-6.6L193.48-6.6Q193.48-4.5 192.26-2.9 191.03-1.3 188.86-0.43 186.68 0.45 183.93 0.45L183.93 0.45Q180.88 0.45 179.06-0.03 177.23-0.5 175.43-1.35L175.43-1.35Q175.58-2.2 175.61-3.35 175.63-4.5 175.63-5.63 175.63-6.75 175.53-7.55L175.53-7.55Q175.98-7.9 176.83-8.05 177.68-8.2 178.48-8.2L178.48-8.2Q178.88-5.15 180.36-3.65 181.83-2.15 184.28-2.15L184.28-2.15Q186.13-2.15 187.21-2.98 188.28-3.8 188.28-5.15L188.28-5.15Q188.28-6 187.86-6.65 187.43-7.3 186.33-7.93 185.23-8.55 183.03-9.4L183.03-9.4Q180.43-10.45 178.81-11.4 177.18-12.35 176.43-13.68 175.68-15 175.68-17.05L175.68-17.05Q175.68-18.65 176.48-19.85 177.28-21.05 178.56-21.83 179.83-22.6 181.36-22.98 182.88-23.35 184.28-23.35L184.28-23.35Q186.68-23.35 188.43-22.93 190.18-22.5 191.73-21.65Z" fill="#ee5626" data-fill-palette-color="primary"></path></g></svg></g></svg></g></svg></g></svg></g></svg></g><defs></defs></svg><rect width="395.52" height="99.18803738317756" fill="none" stroke="none" visibility="hidden"></rect></g></svg></g></svg>