<svg width="1497" height="504" viewBox="0 0 1497 504" fill="none" xmlns="http://www.w3.org/2000/svg">
<g clip-path="url(#clip0_2309_2)">
<path d="M1748 -450H-252V1050H1748V-450Z" fill="#F9F4EC"/>
<g clip-path="url(#clip1_2309_2)">
<rect width="1500" height="374.25" transform="translate(-2.90909 113.23)" fill="#F9F4EC"/>
<g clip-path="url(#clip2_2309_2)">
<g clip-path="url(#clip3_2309_2)">
<g clip-path="url(#clip4_2309_2)">
<g clip-path="url(#clip5_2309_2)">
<g clip-path="url(#clip6_2309_2)">
<g clip-path="url(#clip7_2309_2)">
<path d="M75.2666 394.678C59.2228 394.678 47.2675 390.537 39.4008 382.257C31.4824 373.976 27.5232 360.391 27.5232 341.5V241.355C23.6416 240.062 19.5789 238.949 15.335 238.017C11.0394 237.137 5.78631 236.568 -0.424225 236.309C-0.424225 232.686 -0.165453 229.452 0.352092 226.605C0.869636 223.759 1.77534 220.654 3.0692 217.29H27.5232V167.217C33.7337 165.923 39.8925 163.724 45.9995 160.618C52.0548 157.513 57.1526 154.149 61.2929 150.526C64.1394 151.561 66.0802 153.243 67.1153 155.572C68.1504 157.901 68.6679 163.336 68.6679 171.875V217.29H118.352C118.352 220.395 118.093 223.629 117.576 226.994C117.058 230.358 116.153 233.592 114.859 236.697C105.543 236.697 97.0811 237.215 89.4732 238.25C81.8136 239.285 74.8785 240.45 68.6679 241.744V333.737C68.6679 342.794 69.5219 350.091 71.2298 355.629C72.8859 361.219 75.3443 365.307 78.6048 367.895C81.8136 370.483 85.7469 371.777 90.4048 371.777C95.5802 371.777 100.186 371.052 104.223 369.603C108.208 368.205 112.012 366.084 115.635 363.237C118.999 367.377 120.94 372.294 121.457 377.987C117.058 382.645 110.46 386.578 101.661 389.787C92.8631 393.048 84.0649 394.678 75.2666 394.678ZM331.451 275.125V339.948C331.451 353.145 333.262 362.073 336.885 366.73C340.508 371.388 346.072 373.717 353.576 373.717C354.352 376.305 354.922 379.022 355.284 381.869C355.698 384.715 355.905 388.209 355.905 392.349C350.212 391.831 343.484 391.521 335.721 391.417C327.958 391.262 319.936 391.184 311.655 391.184C306.48 391.184 300.787 391.262 294.576 391.417C288.365 391.521 282.543 391.65 277.109 391.806C271.675 391.909 266.887 392.09 262.747 392.349C262.747 388.467 262.876 384.974 263.135 381.869C263.394 378.763 264.041 376.046 265.076 373.717C273.874 373.717 280.344 371.259 284.484 366.342C288.624 361.426 290.694 352.369 290.694 339.171V285.217C290.694 267.362 287.512 255.2 281.146 248.73C274.832 242.261 266.629 239.026 256.536 239.026C249.808 239.026 243.21 241.226 236.74 245.625C230.271 250.024 224.889 256.882 220.593 266.197C216.349 275.513 214.227 287.805 214.227 303.073V339.948C214.227 352.886 216.09 361.736 219.817 366.498C223.595 371.311 230.271 373.717 239.846 373.717C240.622 376.305 241.191 379.074 241.554 382.024C241.968 385.026 242.175 388.467 242.175 392.349C238.293 392.09 233.635 391.909 228.201 391.806C222.767 391.65 217.074 391.521 211.122 391.417C205.17 391.262 199.348 391.184 193.655 391.184C188.479 391.184 182.786 391.262 176.576 391.417C170.365 391.521 164.465 391.65 158.876 391.806C153.338 391.909 148.629 392.09 144.747 392.349C144.747 388.467 144.876 384.896 145.135 381.636C145.394 378.427 145.911 375.787 146.688 373.717C156.78 373.717 163.767 371.311 167.648 366.498C171.53 361.736 173.471 352.886 173.471 339.948V268.526L214.227 228.158C214.227 231.263 214.02 234.757 213.606 238.638C213.244 242.52 212.416 246.66 211.122 251.059C212.157 249.248 213.192 247.307 214.227 245.237C215.262 243.167 216.686 240.967 218.497 238.638C223.155 232.686 230.271 226.735 239.846 220.783C249.42 214.831 260.806 211.855 274.004 211.855C284.354 211.855 293.851 213.848 302.494 217.833C311.189 221.87 318.176 228.469 323.455 237.629C328.786 246.841 331.451 259.34 331.451 275.125ZM173.471 182.355V170.322C173.471 164.112 172.824 158.988 171.53 154.951C170.236 150.966 167.519 147.939 163.379 145.868C159.238 143.798 152.898 142.763 144.359 142.763C144.359 139.658 144.618 136.682 145.135 133.836C145.653 130.989 146.558 128.401 147.852 126.072C153.286 126.072 159.885 125.425 167.648 124.132C175.411 122.838 182.709 121.156 189.54 119.086C196.424 117.015 201.547 114.945 204.911 112.875C207.499 113.91 209.699 115.721 211.51 118.309C213.322 120.897 214.227 124.778 214.227 129.954V182.355H173.471ZM173.471 275.513V168.382H214.227V228.158L173.471 275.513ZM470.024 394.678C450.616 394.678 434.623 390.537 422.047 382.257C409.523 373.976 400.077 362.849 393.712 348.875C387.398 334.901 384.241 319.505 384.241 302.684C384.241 285.605 387.605 270.079 394.333 256.105C401.061 242.132 410.687 230.927 423.212 222.491C435.788 214.107 450.616 209.915 467.695 209.915C485.032 209.915 498.98 213.537 509.538 220.783C520.199 228.029 528.17 237.733 533.449 249.895C538.779 262.057 541.807 275.772 542.531 291.04C541.548 296.991 539.374 301.908 536.01 305.79C530.835 305.79 523.77 305.79 514.817 305.79C505.915 305.79 495.952 305.841 484.929 305.945C473.957 306.1 462.7 306.359 451.159 306.721C439.618 307.135 428.827 307.601 418.787 308.119V286.77H498.747C498.747 269.691 495.823 255.976 489.975 245.625C484.178 235.274 475.82 230.099 464.9 230.099C458.741 230.099 452.815 232.04 447.122 235.921C441.429 239.803 436.771 246.324 433.148 255.484C429.526 264.697 427.714 277.454 427.714 293.757C427.714 306.695 429.396 319.039 432.76 330.787C436.073 342.587 441.766 352.162 449.839 359.511C457.861 366.912 469.247 370.612 483.997 370.612C492.537 370.612 500.999 368.801 509.383 365.178C517.819 361.555 525.271 356.38 531.741 349.652C533.759 350.687 535.752 352.627 537.718 355.474C539.633 358.32 540.746 361.037 541.056 363.625C531.999 374.752 521.571 382.697 509.771 387.458C497.971 392.271 484.722 394.678 470.024 394.678ZM578.242 127.625C583.417 127.884 589.757 128.143 597.262 128.401C604.766 128.66 611.882 128.789 618.61 128.789C625.08 128.789 631.808 128.712 638.795 128.557C645.782 128.453 652.768 128.324 659.755 128.168C666.742 128.065 673.341 128.013 679.551 128.013C696.63 128.013 711.639 129.695 724.578 133.059C737.516 136.423 747.686 142.246 755.087 150.526C762.436 158.807 766.111 170.322 766.111 185.072C766.111 201.375 761.065 215.349 750.972 226.994C740.88 238.638 726.907 245.884 709.051 248.73C723.543 249.507 736.481 252.172 747.867 256.726C759.253 261.229 768.31 268.138 775.038 277.454C781.766 286.77 785.13 299.191 785.13 314.717C785.13 328.95 781.844 341.888 775.271 353.533C768.647 365.178 758.166 374.364 743.83 381.092C729.443 387.82 710.604 391.184 687.314 391.184C679.551 391.184 670.572 391.184 660.376 391.184C650.129 391.184 639.778 391.262 629.324 391.417C618.817 391.521 609.036 391.65 599.979 391.806C590.922 391.909 583.547 392.09 577.854 392.349C577.854 388.467 577.983 384.896 578.242 381.636C578.501 378.427 579.018 375.787 579.795 373.717C586.781 373.2 592.216 371.828 596.097 369.603C599.979 367.429 602.774 363.625 604.482 358.191C606.138 352.757 606.966 344.864 606.966 334.513V181.579C606.966 172.263 606.189 165.199 604.637 160.386C603.084 155.624 600.367 152.208 596.485 150.138C592.604 148.068 587.17 146.774 580.183 146.257C579.407 143.928 578.889 141.081 578.63 137.717C578.371 134.353 578.242 130.989 578.242 127.625ZM644.229 150.526L649.663 142.375V335.29C649.663 345.899 650.698 353.921 652.768 359.355C654.839 364.79 658.461 368.335 663.637 369.991C668.812 371.699 675.799 372.553 684.597 372.553C702.194 372.553 715.262 367.895 723.801 358.579C732.341 349.263 736.611 336.454 736.611 320.151C736.611 308.507 734.411 298.932 730.012 291.428C725.613 283.923 719.609 278.23 712.001 274.349C704.342 270.467 695.932 267.75 686.771 266.197C677.559 264.645 668.295 263.869 658.979 263.869H643.453V245.237H662.084C677.61 245.237 689.592 242.96 698.028 238.405C706.412 233.903 712.286 227.951 715.65 220.55C719.014 213.201 720.696 205.257 720.696 196.717C720.696 184.037 717.85 174.075 712.157 166.829C706.464 159.583 699.425 154.46 691.041 151.458C682.605 148.508 674.246 147.033 665.966 147.033C662.343 147.033 658.927 147.292 655.718 147.809C652.458 148.327 648.628 149.232 644.229 150.526ZM818.124 392.349C818.124 389.244 818.253 386.009 818.512 382.645C818.771 379.281 819.288 376.305 820.065 373.717C830.415 373.459 837.48 371 841.258 366.342C844.984 361.684 846.847 352.886 846.847 339.948V169.546C846.847 163.594 846.201 158.678 844.907 154.796C843.613 150.914 840.896 147.939 836.755 145.868C832.615 143.798 826.275 142.763 817.736 142.763C817.736 139.658 817.994 136.682 818.512 133.836C819.029 130.989 819.935 128.401 821.229 126.072C826.663 126.072 833.262 125.425 841.025 124.132C848.788 122.838 856.112 121.156 862.995 119.086C869.826 117.015 874.924 114.945 878.288 112.875C880.876 113.91 883.076 115.721 884.887 118.309C886.698 120.897 887.604 124.778 887.604 129.954V339.948C887.604 352.886 889.364 361.684 892.883 366.342C896.351 371 902.354 373.459 910.894 373.717C911.67 376.305 912.265 379.41 912.679 383.033C913.041 386.656 913.223 389.761 913.223 392.349C908.823 392.09 904.036 391.909 898.861 391.806C893.685 391.65 888.251 391.521 882.558 391.417C876.865 391.262 871.301 391.184 865.867 391.184C860.433 391.184 854.74 391.262 848.788 391.417C842.837 391.521 837.273 391.65 832.097 391.806C826.922 391.909 822.264 392.09 818.124 392.349ZM1030.83 394.678C1012.46 394.678 996.47 390.848 982.858 383.188C969.298 375.58 958.818 364.919 951.417 351.204C944.068 337.489 940.394 321.316 940.394 302.684C940.394 284.57 944.327 268.526 952.194 254.553C960.112 240.579 970.929 229.633 984.644 221.715C998.359 213.848 1013.88 209.915 1031.22 209.915C1050.63 209.915 1067.06 213.796 1080.52 221.559C1093.97 229.322 1104.2 240.061 1111.18 253.776C1118.17 267.491 1121.66 283.535 1121.66 301.908C1121.66 319.763 1117.91 335.73 1110.41 349.807C1102.9 363.936 1092.34 374.959 1078.73 382.878C1065.17 390.745 1049.21 394.678 1030.83 394.678ZM1034.72 374.105C1049.21 374.105 1059.95 367.947 1066.93 355.629C1073.92 343.363 1077.41 327.397 1077.41 307.73C1077.41 291.687 1075.14 277.765 1070.58 265.965C1066.08 254.216 1060 245.289 1052.34 239.182C1044.73 233.126 1036.4 230.099 1027.34 230.099C1013.11 230.099 1002.5 236.051 995.512 247.954C988.525 259.858 985.032 275.125 985.032 293.757C985.032 310.318 987.024 324.68 991.009 336.842C995.046 349.005 1000.82 358.243 1008.32 364.557C1015.83 370.923 1024.62 374.105 1034.72 374.105ZM1221.03 487.836C1204.47 487.836 1191.07 485.843 1180.82 481.858C1170.62 477.821 1163.2 471.999 1158.54 464.391C1153.88 456.731 1151.55 447.467 1151.55 436.599C1151.55 426.766 1154.27 418.226 1159.7 410.98C1165.14 403.735 1172.77 398.171 1182.6 394.29L1203.95 396.619C1198 401.535 1193.91 406.4 1191.69 411.213C1189.51 415.975 1188.43 421.59 1188.43 428.059C1188.43 440.481 1191.66 449.874 1198.13 456.24C1204.6 462.554 1215.6 465.711 1231.12 465.711C1247.94 465.711 1261.14 461.777 1270.72 453.911C1280.29 445.992 1285.08 436.728 1285.08 426.119C1285.08 420.167 1283.58 415.457 1280.58 411.99C1277.63 408.47 1271.88 405.883 1263.34 404.227C1254.8 402.519 1242.25 401.665 1225.69 401.665C1214.3 401.665 1204.6 401.095 1196.58 399.957C1188.56 398.766 1181.96 396.826 1176.78 394.134C1171.61 391.391 1167.85 387.743 1165.53 383.188C1163.2 378.686 1162.03 372.941 1162.03 365.954C1162.03 356.638 1164.62 347.969 1169.8 339.948C1174.97 331.926 1181.44 324.809 1189.2 318.599L1207.06 328.691C1202.4 332.573 1198.96 336.247 1196.73 339.715C1194.56 343.234 1193.47 346.417 1193.47 349.263C1193.47 353.921 1194.95 357.337 1197.9 359.511C1200.9 361.736 1206.59 363.159 1214.98 363.78C1223.41 364.453 1235.39 364.79 1250.92 364.79C1267.74 364.79 1281.33 366.213 1291.68 369.059C1302.03 371.906 1309.66 376.512 1314.58 382.878C1319.49 389.192 1321.95 397.913 1321.95 409.04C1321.95 418.356 1319.49 427.749 1314.58 437.22C1309.66 446.639 1302.73 455.101 1293.77 462.606C1284.87 470.11 1274.21 476.191 1261.79 480.849C1249.37 485.507 1235.78 487.836 1221.03 487.836ZM1231.51 337.23C1218.06 337.23 1205.64 334.901 1194.25 330.244C1182.86 325.586 1173.86 318.599 1167.23 309.283C1160.66 299.967 1157.37 288.323 1157.37 274.349C1157.37 261.928 1160.09 250.93 1165.53 241.355C1170.96 231.781 1179.11 224.147 1189.98 218.454C1200.85 212.761 1214.17 209.915 1229.96 209.915C1243.67 209.915 1255.24 212.036 1264.66 216.28C1274.13 220.576 1281.97 226.01 1288.18 232.583C1294.39 239.208 1298.84 246.143 1301.54 253.388C1304.28 260.634 1305.65 267.233 1305.65 273.184C1305.65 284.829 1302.86 295.568 1297.27 305.401C1291.73 315.235 1283.45 322.998 1272.42 328.691C1261.45 334.384 1247.81 337.23 1231.51 337.23ZM1236.17 317.823C1244.45 317.823 1251.18 314.381 1256.35 307.498C1261.53 300.666 1264.12 290.651 1264.12 277.454C1264.12 263.739 1260.93 252.094 1254.57 242.52C1248.25 232.945 1239.28 228.158 1227.63 228.158C1217.8 228.158 1210.55 232.298 1205.89 240.579C1201.24 248.86 1198.91 258.434 1198.91 269.303C1198.91 284.829 1202.19 296.784 1208.77 305.169C1215.39 313.605 1224.53 317.823 1236.17 317.823ZM1325.45 239.026C1321.31 237.991 1316.44 236.956 1310.85 235.921C1305.31 234.886 1299.88 233.98 1294.55 233.204C1289.27 232.428 1284.56 231.91 1280.42 231.651L1250.14 213.408H1322.34C1323.64 217.031 1324.46 221.094 1324.83 225.596C1325.24 230.151 1325.45 234.627 1325.45 239.026ZM1481.02 223.112C1480.76 229.581 1480.63 236.309 1480.63 243.296C1480.63 250.283 1481.15 257.14 1482.18 263.869C1479.34 265.421 1475.92 266.637 1471.94 267.517C1467.9 268.449 1463.81 268.915 1459.67 268.915C1459.15 261.928 1457.16 255.329 1453.69 249.119C1450.17 242.908 1445.44 237.862 1439.49 233.98C1433.54 230.099 1426.42 228.158 1418.14 228.158C1410.63 228.158 1404.68 229.969 1400.28 233.592C1395.88 237.215 1393.68 242.002 1393.68 247.954C1393.68 252.094 1394.59 255.769 1396.4 258.978C1398.21 262.238 1402.35 265.732 1408.82 269.458C1415.29 273.236 1425.26 277.842 1438.71 283.276C1452.94 288.452 1464.07 293.679 1472.09 298.958C1480.11 304.289 1485.89 310.111 1489.4 316.425C1492.87 322.791 1494.61 330.632 1494.61 339.948C1494.61 350.816 1491.45 360.391 1485.13 368.671C1478.77 376.952 1469.97 383.344 1458.74 387.846C1447.46 392.401 1434.7 394.678 1420.47 394.678C1404.68 394.678 1392.08 393.436 1382.66 390.952C1373.19 388.519 1363.8 385.103 1354.48 380.704C1355.26 376.305 1355.72 371.13 1355.88 365.178C1355.98 359.226 1356.03 353.326 1356.03 347.478C1356.03 341.681 1355.77 336.713 1355.26 332.573C1357.59 330.761 1360.95 329.467 1365.35 328.691C1369.75 327.915 1374.02 327.526 1378.16 327.526C1380.23 343.312 1385.09 355.086 1392.75 362.849C1400.36 370.612 1410.51 374.494 1423.18 374.494C1432.76 374.494 1440.34 372.346 1445.93 368.05C1451.47 363.806 1454.24 358.191 1454.24 351.204C1454.24 346.805 1453.15 342.923 1450.98 339.559C1448.75 336.195 1444.79 332.883 1439.1 329.623C1433.41 326.414 1424.87 322.61 1413.48 318.211C1400.02 312.776 1389.1 307.601 1380.72 302.684C1372.28 297.768 1366.13 291.868 1362.24 284.984C1358.36 278.153 1356.42 269.432 1356.42 258.822C1356.42 250.542 1358.49 243.296 1362.63 237.086C1366.77 230.875 1372.15 225.751 1378.78 221.715C1385.35 217.729 1392.6 214.754 1400.52 212.787C1408.38 210.872 1415.94 209.915 1423.18 209.915C1435.61 209.915 1446.34 211.001 1455.4 213.175C1464.46 215.401 1473 218.713 1481.02 223.112Z" fill="#EE5626"/>
</g>
</g>
</g>
</g>
</g>
</g>
</g>
</g>
<defs>
<clipPath id="clip0_2309_2">
<rect width="1497" height="504" fill="white"/>
</clipPath>
<clipPath id="clip1_2309_2">
<rect width="1500" height="374.25" fill="white" transform="translate(-2.90909 113.23)"/>
</clipPath>
<clipPath id="clip2_2309_2">
<rect width="1495.19" height="374.961" fill="white" transform="translate(-0.501801 112.875)"/>
</clipPath>
<clipPath id="clip3_2309_2">
<rect width="1495.19" height="374.961" fill="white" transform="translate(-0.501801 112.875)"/>
</clipPath>
<clipPath id="clip4_2309_2">
<rect width="1495.19" height="374.961" fill="white" transform="translate(-0.501801 112.875)"/>
</clipPath>
<clipPath id="clip5_2309_2">
<rect width="1495.19" height="374.961" fill="white" transform="translate(-0.501801 112.875)"/>
</clipPath>
<clipPath id="clip6_2309_2">
<rect width="1495.19" height="374.961" fill="white" transform="translate(-0.501801 112.875)"/>
</clipPath>
<clipPath id="clip7_2309_2">
<rect width="1495.19" height="374.961" fill="white" transform="translate(-0.501801 112.875)"/>
</clipPath>
</defs>
</svg>
