<svg xmlns="http://www.w3.org/2000/svg" version="1.1" xmlns:xlink="http://www.w3.org/1999/xlink" xmlns:svgjs="http://svgjs.dev/svgjs" width="128" height="128" viewBox="0 0 128 128"><g transform="matrix(0.40077821011673154,0,0,0.40077821011673154,38.39256203824755,12.33387096774193)"><svg viewBox="0 0 77 155" data-background-color="#201f1f" preserveAspectRatio="xMidYMid meet" height="257" width="128" xmlns="http://www.w3.org/2000/svg" xmlns:xlink="http://www.w3.org/1999/xlink"><g id="tight-bounds" transform="matrix(1,0,0,1,-0.06359300476947283,0.25)"><svg viewBox="0 0 77.12718600953896 154.5" height="154.5" width="77.12718600953896"><g><svg viewBox="0 0 77.12718600953896 154.5" height="154.5" width="77.12718600953896"><g><svg viewBox="0 0 77.12718600953896 154.5" height="154.5" width="77.12718600953896"><g id="textblocktransform"><svg viewBox="0 0 77.12718600953896 154.5" height="154.5" width="77.12718600953896" id="textblock"><g><svg viewBox="0 0 77.12718600953896 154.5" height="154.5" width="77.12718600953896"><g transform="matrix(1,0,0,1,0,0)"><svg width="77.12718600953896" viewBox="0.8999999999999999 -31 15.700000000000001 31.45" height="154.5" data-palette-color="#ee5626"><g class="wordmark-text-0" data-fill-palette-color="primary" id="text-0"><path d="M10.65 0.45L10.65 0.45Q7.55 0.45 6.03-1.15 4.5-2.75 4.5-6.4L4.5-6.4 4.5-19.3Q3.75-19.55 2.93-19.73 2.1-19.9 0.9-19.95L0.9-19.95Q0.9-20.65 1-21.2 1.1-21.75 1.35-22.4L1.35-22.4 4.5-22.4 4.5-28.85Q5.7-29.1 6.88-29.7 8.05-30.3 8.85-31L8.85-31Q9.4-30.8 9.6-30.35 9.8-29.9 9.8-28.25L9.8-28.25 9.8-22.4 16.2-22.4Q16.2-21.8 16.1-21.15 16-20.5 15.75-19.9L15.75-19.9Q13.95-19.9 12.48-19.7 11-19.5 9.8-19.25L9.8-19.25 9.8-7.4Q9.8-5.65 10.13-4.58 10.45-3.5 11.08-3 11.7-2.5 12.6-2.5L12.6-2.5Q13.6-2.5 14.38-2.78 15.15-3.05 15.85-3.6L15.85-3.6Q16.5-2.8 16.6-1.7L16.6-1.7Q15.75-0.8 14.05-0.18 12.35 0.45 10.65 0.45Z" fill="#ee5626" data-fill-palette-color="primary"></path></g></svg></g></svg></g></svg></g></svg></g></svg></g><defs></defs></svg><rect width="77.12718600953896" height="154.5" fill="none" stroke="none" visibility="hidden"></rect></g></svg></g></svg>