<svg width="2000" height="674" viewBox="0 0 2000 674" fill="none" xmlns="http://www.w3.org/2000/svg">
<g clip-path="url(#clip0_2309_2)">
<path d="M2000 -365H0V1135H2000V-365Z" fill="#F9F4EC"/>
<g clip-path="url(#clip1_2309_2)">
<rect width="1500" height="374.25" transform="translate(249.091 198.23)" fill="#F9F4EC"/>
<g clip-path="url(#clip2_2309_2)">
<g clip-path="url(#clip3_2309_2)">
<g clip-path="url(#clip4_2309_2)">
<g clip-path="url(#clip5_2309_2)">
<g clip-path="url(#clip6_2309_2)">
<g clip-path="url(#clip7_2309_2)">
<path d="M327.267 479.678C311.223 479.678 299.267 475.538 291.401 467.257C283.482 458.976 279.523 445.391 279.523 426.5V326.355C275.642 325.062 271.579 323.949 267.335 323.017C263.039 322.137 257.786 321.568 251.576 321.309C251.576 317.686 251.835 314.452 252.352 311.605C252.87 308.759 253.775 305.654 255.069 302.29H279.523V252.217C285.734 250.923 291.892 248.724 297.999 245.618C304.055 242.513 309.153 239.149 313.293 235.526C316.139 236.561 318.08 238.243 319.115 240.572C320.15 242.901 320.668 248.336 320.668 256.875V302.29H370.352C370.352 305.395 370.093 308.629 369.576 311.994C369.058 315.358 368.153 318.592 366.859 321.697C357.543 321.697 349.081 322.215 341.473 323.25C333.814 324.285 326.878 325.45 320.668 326.744V418.737C320.668 427.794 321.522 435.091 323.23 440.629C324.886 446.219 327.344 450.307 330.605 452.895C333.814 455.483 337.747 456.777 342.405 456.777C347.58 456.777 352.186 456.052 356.223 454.603C360.208 453.205 364.012 451.084 367.635 448.237C370.999 452.377 372.94 457.294 373.457 462.987C369.058 467.645 362.46 471.578 353.661 474.787C344.863 478.048 336.065 479.678 327.267 479.678ZM583.451 360.125V424.948C583.451 438.145 585.262 447.073 588.885 451.73C592.508 456.388 598.072 458.717 605.576 458.717C606.352 461.305 606.922 464.022 607.284 466.869C607.698 469.715 607.905 473.209 607.905 477.349C602.212 476.831 595.484 476.521 587.721 476.417C579.958 476.262 571.936 476.184 563.655 476.184C558.479 476.184 552.787 476.262 546.576 476.417C540.365 476.521 534.543 476.65 529.109 476.806C523.675 476.909 518.887 477.09 514.747 477.349C514.747 473.467 514.876 469.974 515.135 466.869C515.394 463.763 516.041 461.046 517.076 458.717C525.874 458.717 532.344 456.259 536.484 451.342C540.624 446.426 542.694 437.369 542.694 424.171V370.217C542.694 352.362 539.512 340.2 533.146 333.73C526.832 327.261 518.629 324.026 508.536 324.026C501.808 324.026 495.21 326.226 488.74 330.625C482.271 335.024 476.889 341.882 472.593 351.197C468.349 360.513 466.227 372.805 466.227 388.073V424.948C466.227 437.886 468.09 446.736 471.817 451.498C475.595 456.311 482.271 458.717 491.846 458.717C492.622 461.305 493.191 464.074 493.554 467.024C493.968 470.026 494.175 473.467 494.175 477.349C490.293 477.09 485.635 476.909 480.201 476.806C474.767 476.65 469.074 476.521 463.122 476.417C457.17 476.262 451.348 476.184 445.655 476.184C440.479 476.184 434.786 476.262 428.576 476.417C422.365 476.521 416.465 476.65 410.876 476.806C405.338 476.909 400.629 477.09 396.747 477.349C396.747 473.467 396.876 469.896 397.135 466.636C397.394 463.427 397.911 460.788 398.688 458.717C408.78 458.717 415.767 456.311 419.648 451.498C423.53 446.736 425.471 437.886 425.471 424.948V353.526L466.227 313.158C466.227 316.263 466.02 319.757 465.606 323.638C465.244 327.52 464.416 331.66 463.122 336.059C464.157 334.248 465.192 332.307 466.227 330.237C467.262 328.167 468.686 325.967 470.497 323.638C475.155 317.687 482.271 311.735 491.846 305.783C501.42 299.831 512.806 296.855 526.004 296.855C536.354 296.855 545.851 298.848 554.494 302.833C563.189 306.87 570.176 313.469 575.455 322.629C580.786 331.841 583.451 344.34 583.451 360.125ZM425.471 267.355V255.322C425.471 249.112 424.824 243.988 423.53 239.951C422.236 235.966 419.519 232.939 415.379 230.868C411.238 228.798 404.898 227.763 396.359 227.763C396.359 224.658 396.618 221.682 397.135 218.836C397.653 215.989 398.558 213.401 399.852 211.072C405.286 211.072 411.885 210.425 419.648 209.132C427.411 207.838 434.709 206.156 441.54 204.086C448.424 202.015 453.547 199.945 456.911 197.875C459.499 198.91 461.699 200.721 463.51 203.309C465.322 205.897 466.227 209.778 466.227 214.954V267.355H425.471ZM425.471 360.513V253.382H466.227V313.158L425.471 360.513ZM722.023 479.678C702.616 479.678 686.623 475.538 674.047 467.257C661.523 458.976 652.077 447.849 645.712 433.875C639.398 419.901 636.241 404.505 636.241 387.684C636.241 370.605 639.605 355.079 646.333 341.105C653.061 327.132 662.687 315.927 675.212 307.491C687.788 299.107 702.616 294.915 719.695 294.915C737.032 294.915 750.98 298.537 761.538 305.783C772.199 313.029 780.17 322.733 785.449 334.895C790.779 347.057 793.807 360.772 794.531 376.04C793.548 381.991 791.374 386.908 788.01 390.79C782.835 390.79 775.77 390.79 766.817 390.79C757.915 390.79 747.952 390.841 736.929 390.945C725.957 391.1 714.7 391.359 703.159 391.721C691.618 392.135 680.827 392.601 670.787 393.119V371.77H750.747C750.747 354.691 747.823 340.976 741.975 330.625C736.178 320.274 727.82 315.099 716.9 315.099C710.741 315.099 704.815 317.04 699.122 320.921C693.429 324.803 688.771 331.324 685.148 340.484C681.526 349.697 679.714 362.454 679.714 378.757C679.714 391.695 681.396 404.039 684.76 415.787C688.073 427.587 693.766 437.162 701.839 444.511C709.861 451.912 721.247 455.612 735.997 455.612C744.537 455.612 752.999 453.801 761.383 450.178C769.819 446.555 777.271 441.38 783.741 434.652C785.759 435.687 787.752 437.627 789.718 440.474C791.633 443.32 792.746 446.037 793.056 448.625C783.999 459.752 773.571 467.697 761.771 472.458C749.971 477.271 736.722 479.678 722.023 479.678ZM830.242 212.625C835.417 212.884 841.757 213.143 849.262 213.401C856.766 213.66 863.882 213.789 870.61 213.789C877.08 213.789 883.808 213.712 890.795 213.557C897.782 213.453 904.768 213.324 911.755 213.168C918.742 213.065 925.341 213.013 931.551 213.013C948.63 213.013 963.639 214.695 976.578 218.059C989.516 221.423 999.686 227.246 1007.09 235.526C1014.44 243.807 1018.11 255.322 1018.11 270.072C1018.11 286.375 1013.06 300.349 1002.97 311.994C992.88 323.638 978.907 330.884 961.051 333.73C975.543 334.507 988.481 337.172 999.867 341.726C1011.25 346.229 1020.31 353.138 1027.04 362.454C1033.77 371.77 1037.13 384.191 1037.13 399.717C1037.13 413.95 1033.84 426.888 1027.27 438.533C1020.65 450.178 1010.17 459.364 995.83 466.092C981.443 472.82 962.604 476.184 939.314 476.184C931.551 476.184 922.572 476.184 912.376 476.184C902.129 476.184 891.778 476.262 881.324 476.417C870.817 476.521 861.036 476.65 851.979 476.806C842.922 476.909 835.547 477.09 829.854 477.349C829.854 473.467 829.983 469.896 830.242 466.636C830.501 463.427 831.018 460.788 831.795 458.717C838.781 458.2 844.216 456.828 848.097 454.603C851.979 452.429 854.774 448.625 856.481 443.191C858.138 437.757 858.966 429.864 858.966 419.513V266.579C858.966 257.263 858.189 250.199 856.637 245.386C855.084 240.624 852.367 237.208 848.485 235.138C844.604 233.068 839.17 231.774 832.183 231.257C831.407 228.928 830.889 226.081 830.63 222.717C830.371 219.353 830.242 215.989 830.242 212.625ZM896.229 235.526L901.663 227.375V420.29C901.663 430.899 902.698 438.921 904.768 444.355C906.839 449.79 910.461 453.335 915.637 454.991C920.812 456.699 927.799 457.553 936.597 457.553C954.194 457.553 967.262 452.895 975.801 443.579C984.341 434.263 988.611 421.454 988.611 405.151C988.611 393.507 986.411 383.932 982.012 376.428C977.613 368.923 971.609 363.23 964.001 359.349C956.342 355.467 947.932 352.75 938.771 351.197C929.559 349.645 920.295 348.869 910.979 348.869H895.453V330.237H914.084C929.611 330.237 941.592 327.96 950.028 323.405C958.412 318.903 964.286 312.951 967.65 305.55C971.014 298.201 972.696 290.257 972.696 281.717C972.696 269.037 969.85 259.075 964.157 251.829C958.464 244.583 951.425 239.46 943.041 236.458C934.605 233.508 926.246 232.033 917.966 232.033C914.343 232.033 910.927 232.292 907.718 232.809C904.458 233.327 900.628 234.232 896.229 235.526ZM1070.12 477.349C1070.12 474.244 1070.25 471.009 1070.51 467.645C1070.77 464.281 1071.29 461.305 1072.06 458.717C1082.42 458.459 1089.48 456 1093.26 451.342C1096.98 446.684 1098.85 437.886 1098.85 424.948V254.546C1098.85 248.594 1098.2 243.678 1096.91 239.796C1095.61 235.914 1092.9 232.939 1088.76 230.868C1084.62 228.798 1078.28 227.763 1069.74 227.763C1069.74 224.658 1069.99 221.682 1070.51 218.836C1071.03 215.989 1071.94 213.401 1073.23 211.072C1078.66 211.072 1085.26 210.425 1093.03 209.132C1100.79 207.838 1108.11 206.156 1114.99 204.086C1121.83 202.015 1126.92 199.945 1130.29 197.875C1132.88 198.91 1135.08 200.721 1136.89 203.309C1138.7 205.897 1139.6 209.778 1139.6 214.954V424.948C1139.6 437.886 1141.36 446.684 1144.88 451.342C1148.35 456 1154.35 458.459 1162.89 458.717C1163.67 461.305 1164.27 464.41 1164.68 468.033C1165.04 471.656 1165.22 474.761 1165.22 477.349C1160.82 477.09 1156.04 476.909 1150.86 476.806C1145.69 476.65 1140.25 476.521 1134.56 476.417C1128.87 476.262 1123.3 476.184 1117.87 476.184C1112.43 476.184 1106.74 476.262 1100.79 476.417C1094.84 476.521 1089.27 476.65 1084.1 476.806C1078.92 476.909 1074.26 477.09 1070.12 477.349ZM1282.83 479.678C1264.46 479.678 1248.47 475.848 1234.86 468.188C1221.3 460.58 1210.82 449.919 1203.42 436.204C1196.07 422.489 1192.39 406.316 1192.39 387.684C1192.39 369.57 1196.33 353.526 1204.19 339.553C1212.11 325.579 1222.93 314.633 1236.64 306.715C1250.36 298.848 1265.88 294.915 1283.22 294.915C1302.63 294.915 1319.06 298.796 1332.52 306.559C1345.97 314.322 1356.2 325.061 1363.18 338.776C1370.17 352.491 1373.66 368.535 1373.66 386.908C1373.66 404.763 1369.91 420.73 1362.41 434.807C1354.9 448.936 1344.34 459.959 1330.73 467.878C1317.17 475.745 1301.21 479.678 1282.83 479.678ZM1286.72 459.105C1301.21 459.105 1311.95 452.947 1318.93 440.629C1325.92 428.363 1329.41 412.397 1329.41 392.73C1329.41 376.687 1327.14 362.765 1322.58 350.965C1318.08 339.216 1312 330.289 1304.34 324.182C1296.73 318.126 1288.4 315.099 1279.34 315.099C1265.11 315.099 1254.5 321.051 1247.51 332.954C1240.53 344.858 1237.03 360.125 1237.03 378.757C1237.03 395.318 1239.02 409.68 1243.01 421.842C1247.05 434.005 1252.82 443.243 1260.32 449.557C1267.83 455.923 1276.62 459.105 1286.72 459.105ZM1473.03 572.836C1456.47 572.836 1443.07 570.843 1432.82 566.858C1422.62 562.821 1415.2 556.999 1410.54 549.391C1405.88 541.731 1403.55 532.467 1403.55 521.599C1403.55 511.766 1406.27 503.226 1411.7 495.98C1417.14 488.735 1424.77 483.171 1434.6 479.29L1455.95 481.619C1450 486.535 1445.91 491.4 1443.69 496.213C1441.51 500.975 1440.43 506.59 1440.43 513.059C1440.43 525.481 1443.66 534.874 1450.13 541.24C1456.6 547.554 1467.6 550.711 1483.12 550.711C1499.94 550.711 1513.14 546.777 1522.72 538.911C1532.29 530.992 1537.08 521.728 1537.08 511.119C1537.08 505.167 1535.58 500.457 1532.58 496.99C1529.63 493.47 1523.88 490.883 1515.34 489.227C1506.8 487.519 1494.25 486.665 1477.69 486.665C1466.3 486.665 1456.6 486.095 1448.58 484.957C1440.56 483.766 1433.96 481.826 1428.78 479.134C1423.61 476.391 1419.85 472.743 1417.53 468.188C1415.2 463.686 1414.03 457.941 1414.03 450.954C1414.03 441.638 1416.62 432.969 1421.8 424.948C1426.97 416.926 1433.44 409.809 1441.2 403.599L1459.06 413.691C1454.4 417.573 1450.96 421.247 1448.73 424.715C1446.56 428.234 1445.47 431.417 1445.47 434.263C1445.47 438.921 1446.95 442.337 1449.9 444.511C1452.9 446.736 1458.59 448.159 1466.98 448.78C1475.41 449.453 1487.39 449.79 1502.92 449.79C1519.74 449.79 1533.33 451.213 1543.68 454.059C1554.03 456.906 1561.66 461.512 1566.58 467.878C1571.49 474.192 1573.95 482.913 1573.95 494.04C1573.95 503.355 1571.49 512.749 1566.58 522.22C1561.66 531.639 1554.73 540.101 1545.77 547.606C1536.87 555.11 1526.21 561.191 1513.79 565.849C1501.37 570.507 1487.78 572.836 1473.03 572.836ZM1483.51 422.23C1470.06 422.23 1457.64 419.901 1446.25 415.244C1434.86 410.586 1425.86 403.599 1419.23 394.283C1412.66 384.967 1409.37 373.323 1409.37 359.349C1409.37 346.928 1412.09 335.93 1417.53 326.355C1422.96 316.781 1431.11 309.147 1441.98 303.454C1452.85 297.761 1466.17 294.915 1481.96 294.915C1495.67 294.915 1507.24 297.036 1516.66 301.28C1526.13 305.576 1533.97 311.01 1540.18 317.583C1546.39 324.208 1550.84 331.143 1553.54 338.388C1556.28 345.634 1557.65 352.233 1557.65 358.184C1557.65 369.829 1554.86 380.568 1549.27 390.401C1543.73 400.235 1535.45 407.998 1524.42 413.691C1513.45 419.384 1499.81 422.23 1483.51 422.23ZM1488.17 402.823C1496.45 402.823 1503.18 399.381 1508.35 392.498C1513.53 385.666 1516.12 375.651 1516.12 362.454C1516.12 348.739 1512.93 337.094 1506.57 327.52C1500.25 317.945 1491.28 313.158 1479.63 313.158C1469.8 313.158 1462.55 317.298 1457.89 325.579C1453.24 333.86 1450.91 343.434 1450.91 354.303C1450.91 369.829 1454.19 381.784 1460.77 390.169C1467.39 398.605 1476.53 402.823 1488.17 402.823ZM1577.45 324.026C1573.31 322.991 1568.44 321.956 1562.85 320.921C1557.31 319.886 1551.88 318.98 1546.55 318.204C1541.27 317.428 1536.56 316.91 1532.42 316.651L1502.14 298.408H1574.34C1575.64 302.031 1576.46 306.094 1576.83 310.596C1577.24 315.151 1577.45 319.627 1577.45 324.026ZM1733.02 308.112C1732.76 314.581 1732.63 321.309 1732.63 328.296C1732.63 335.283 1733.15 342.14 1734.18 348.869C1731.34 350.421 1727.92 351.637 1723.94 352.517C1719.9 353.449 1715.81 353.915 1711.67 353.915C1711.15 346.928 1709.16 340.329 1705.69 334.119C1702.17 327.908 1697.44 322.862 1691.49 318.98C1685.54 315.099 1678.42 313.158 1670.14 313.158C1662.63 313.158 1656.68 314.969 1652.28 318.592C1647.88 322.215 1645.68 327.002 1645.68 332.954C1645.68 337.094 1646.59 340.769 1648.4 343.978C1650.21 347.238 1654.35 350.732 1660.82 354.458C1667.29 358.236 1677.25 362.842 1690.71 368.276C1704.94 373.452 1716.07 378.679 1724.09 383.958C1732.11 389.289 1737.89 395.111 1741.4 401.425C1744.87 407.791 1746.61 415.632 1746.61 424.948C1746.61 435.816 1743.45 445.391 1737.13 453.671C1730.77 461.952 1721.97 468.344 1710.74 472.846C1699.46 477.401 1686.7 479.678 1672.47 479.678C1656.68 479.678 1644.08 478.436 1634.66 475.952C1625.19 473.519 1615.8 470.103 1606.48 465.704C1607.26 461.305 1607.72 456.13 1607.88 450.178C1607.98 444.226 1608.03 438.326 1608.03 432.478C1608.03 426.681 1607.77 421.713 1607.26 417.573C1609.59 415.761 1612.95 414.467 1617.35 413.691C1621.75 412.915 1626.02 412.526 1630.16 412.526C1632.23 428.312 1637.09 440.086 1644.75 447.849C1652.36 455.612 1662.5 459.494 1675.18 459.494C1684.76 459.494 1692.34 457.346 1697.93 453.05C1703.47 448.806 1706.24 443.191 1706.24 436.204C1706.24 431.805 1705.15 427.923 1702.98 424.559C1700.75 421.195 1696.79 417.883 1691.1 414.623C1685.41 411.414 1676.87 407.61 1665.48 403.211C1652.02 397.776 1641.1 392.601 1632.72 387.684C1624.28 382.768 1618.13 376.868 1614.24 369.984C1610.36 363.153 1608.42 354.432 1608.42 343.822C1608.42 335.542 1610.49 328.296 1614.63 322.086C1618.77 315.875 1624.15 310.751 1630.78 306.715C1637.35 302.729 1644.6 299.754 1652.52 297.787C1660.38 295.872 1667.94 294.915 1675.18 294.915C1687.61 294.915 1698.34 296.001 1707.4 298.175C1716.46 300.401 1725 303.713 1733.02 308.112Z" fill="#EE5626"/>
</g>
</g>
</g>
</g>
</g>
</g>
</g>
</g>
<defs>
<clipPath id="clip0_2309_2">
<rect width="2000" height="674" fill="white"/>
</clipPath>
<clipPath id="clip1_2309_2">
<rect width="1500" height="374.25" fill="white" transform="translate(249.091 198.23)"/>
</clipPath>
<clipPath id="clip2_2309_2">
<rect width="1495.19" height="374.961" fill="white" transform="translate(251.498 197.875)"/>
</clipPath>
<clipPath id="clip3_2309_2">
<rect width="1495.19" height="374.961" fill="white" transform="translate(251.498 197.875)"/>
</clipPath>
<clipPath id="clip4_2309_2">
<rect width="1495.19" height="374.961" fill="white" transform="translate(251.498 197.875)"/>
</clipPath>
<clipPath id="clip5_2309_2">
<rect width="1495.19" height="374.961" fill="white" transform="translate(251.498 197.875)"/>
</clipPath>
<clipPath id="clip6_2309_2">
<rect width="1495.19" height="374.961" fill="white" transform="translate(251.498 197.875)"/>
</clipPath>
<clipPath id="clip7_2309_2">
<rect width="1495.19" height="374.961" fill="white" transform="translate(251.498 197.875)"/>
</clipPath>
</defs>
</svg>
